# xmcd
#
# Track frame offsets: 
#        150
#        11810
#        24528
#        35792
#        46204
#        58789
#        71966
#        82594
#        94174
#        106046
#        117453
#        131479
#        143904
#        156979
#        167210
#        176167
#        188818
#        201429
#        215497
#        227597
#        238471
#
# Disc length: 3333 seconds
#
# Revision: 1
# Processed by: cddbd v1.5.2PL0 Copyright (c) Steve Scherf et al.
# Submitted via: ExactAudioCopy v0.99pb1
#
DISCID=360d0315
DTITLE=Ray Charles - Blues Before Sunrise
DYEAR=2007
DGENRE=Blues
TTITLE0=Tell Me Baby
TTITLE1=The Snow Is Falling
TTITLE2=Confession Blues
TTITLE3=I Wonder Who's Kissing Her Now
TTITLE4=Blues Before Sunrise
TTITLE5=Alone In The City
TTITLE6=Hey Now
TTITLE7=See See Rider
TTITLE8=I Love You
TTITLE9=Lets Have A Ball
TTITLE10=Baby Let Me Hold Your Hand
TTITLE11=Rocking Chair Blues
TTITLE12=Baby Won't You Please Come Home
TTITLE13=Sitting On Top Of The World
TTITLE14=All To Myself
TTITLE15=Can Anyone Ask For More
TTITLE16=You'll Always Miss The Water
TTITLE17=Kiss Me Baby
TTITLE18=I've Had My Fun
TTITLE19=A Sentimental Blues
TTITLE20=How Long Blues
EXTD=
EXTT0=
EXTT1=
EXTT2=
EXTT3=
EXTT4=
EXTT5=
EXTT6=
EXTT7=
EXTT8=
EXTT9=
EXTT10=
EXTT11=
EXTT12=
EXTT13=
EXTT14=
EXTT15=
EXTT16=
EXTT17=
EXTT18=
EXTT19=
EXTT20=
PLAYORDER=
